<svg width="980" height="620" viewBox="0 0 980 620" fill="none" xmlns="http://www.w3.org/2000/svg">
<g filter="url(#filter0_d_0_361)">
<rect x="10" y="10" width="960" height="600" rx="20" fill="white"/>
</g>
<g filter="url(#filter1_d_0_361)">
<path d="M10 30C10 18.9543 18.9543 10 30 10H950C961.046 10 970 18.9543 970 30V74H10V30Z" fill="#00252E"/>
</g>
<rect x="82" y="30" width="200" height="24" rx="5" fill="#E1E8EE"/>
<rect x="874" y="32" width="32" height="4" rx="2" fill="#D8D8D8"/>
<rect x="874" y="40" width="32" height="4" rx="2" fill="#D8D8D8"/>
<rect x="874" y="48" width="32" height="4" rx="2" fill="#D8D8D8"/>
<circle cx="130" cy="196" r="48" fill="url(#paint0_linear_0_361)"/>
<rect x="234" y="160" width="115" height="16" rx="3" fill="#E1E8EE"/>
<rect x="234" y="192" width="400" height="8" rx="3" fill="#E1E8EE"/>
<rect x="234" y="208" width="366.667" height="8" rx="3" fill="#E1E8EE"/>
<rect x="234" y="224" width="333.333" height="8" rx="3" fill="#E1E8EE"/>
<circle cx="694" cy="196" r="12" fill="#A7B9C8"/>
<circle cx="758" cy="196" r="12" fill="#A7B9C8"/>
<circle cx="726" cy="196" r="12" fill="#A7B9C8"/>
<circle cx="790" cy="196" r="12" fill="#A7B9C8"/>
<circle cx="822" cy="196" r="12" fill="#A7B9C8"/>
<circle cx="127" cy="329" r="45" fill="url(#paint1_linear_0_361)"/>
<rect x="231" y="293" width="115" height="16" rx="3" fill="#E1E8EE"/>
<rect x="231" y="325" width="400" height="8" rx="3" fill="#E1E8EE"/>
<rect x="231" y="341" width="366.667" height="8" rx="3" fill="#E1E8EE"/>
<rect x="231" y="357" width="333.333" height="8" rx="3" fill="#E1E8EE"/>
<circle cx="691" cy="329" r="12" fill="#A7B9C8"/>
<circle cx="755" cy="329" r="12" fill="#A7B9C8"/>
<circle cx="723" cy="329" r="12" fill="#A7B9C8"/>
<circle cx="127" cy="472" r="45" fill="url(#paint2_linear_0_361)"/>
<rect x="231" y="436" width="115" height="16" rx="3" fill="#E1E8EE"/>
<rect x="231" y="468" width="400" height="8" rx="3" fill="#E1E8EE"/>
<rect x="231" y="484" width="366.667" height="8" rx="3" fill="#E1E8EE"/>
<rect x="231" y="500" width="333.333" height="8" rx="3" fill="#E1E8EE"/>
<circle cx="691" cy="472" r="12" fill="#A7B9C8"/>
<circle cx="755" cy="472" r="12" fill="#A7B9C8"/>
<circle cx="723" cy="472" r="12" fill="#A7B9C8"/>
<circle cx="787" cy="472" r="12" fill="#A7B9C8"/>
<defs>
<filter id="filter0_d_0_361" x="0" y="0" width="980" height="620" filterUnits="userSpaceOnUse" color-interpolation-filters="sRGB">
<feFlood flood-opacity="0" result="BackgroundImageFix"/>
<feColorMatrix in="SourceAlpha" type="matrix" values="0 0 0 0 0 0 0 0 0 0 0 0 0 0 0 0 0 0 127 0" result="hardAlpha"/>
<feOffset/>
<feGaussianBlur stdDeviation="5"/>
<feColorMatrix type="matrix" values="0 0 0 0 0 0 0 0 0 0.145098 0 0 0 0 0.180392 0 0 0 0.181839 0"/>
<feBlend mode="normal" in2="BackgroundImageFix" result="effect1_dropShadow_0_361"/>
<feBlend mode="normal" in="SourceGraphic" in2="effect1_dropShadow_0_361" result="shape"/>
</filter>
<filter id="filter1_d_0_361" x="0" y="0" width="980" height="84" filterUnits="userSpaceOnUse" color-interpolation-filters="sRGB">
<feFlood flood-opacity="0" result="BackgroundImageFix"/>
<feColorMatrix in="SourceAlpha" type="matrix" values="0 0 0 0 0 0 0 0 0 0 0 0 0 0 0 0 0 0 127 0" result="hardAlpha"/>
<feOffset/>
<feGaussianBlur stdDeviation="5"/>
<feColorMatrix type="matrix" values="0 0 0 0 0 0 0 0 0 0.145098 0 0 0 0 0.180392 0 0 0 0.181839 0"/>
<feBlend mode="normal" in2="BackgroundImageFix" result="effect1_dropShadow_0_361"/>
<feBlend mode="normal" in="SourceGraphic" in2="effect1_dropShadow_0_361" result="shape"/>
</filter>
<linearGradient id="paint0_linear_0_361" x1="28.1704" y1="155.901" x2="86.9075" y2="291.998" gradientUnits="userSpaceOnUse">
<stop stop-color="#FAD961"/>
<stop offset="1" stop-color="#FF52C1"/>
</linearGradient>
<linearGradient id="paint1_linear_0_361" x1="82" y1="284" x2="82" y2="374" gradientUnits="userSpaceOnUse">
<stop stop-color="#00C7FA"/>
<stop offset="1" stop-color="#007DFA"/>
</linearGradient>
<linearGradient id="paint2_linear_0_361" x1="58.0159" y1="454.552" x2="113.12" y2="554.671" gradientUnits="userSpaceOnUse">
<stop stop-color="#FF52C1"/>
<stop offset="1" stop-color="#9952FF"/>
</linearGradient>
</defs>
</svg>
