<svg width="338" height="530" viewBox="0 0 338 530" fill="none" xmlns="http://www.w3.org/2000/svg">
<g filter="url(#filter0_d_0_405)">
<path fill-rule="evenodd" clip-rule="evenodd" d="M9 26.0667C9 16.641 16.641 9 26.0667 9H311.933C321.359 9 329 16.641 329 26.0667V503.933C329 513.359 321.359 521 311.933 521H26.0667C16.641 521 9 513.359 9 503.933V26.0667Z" fill="white"/>
</g>
<g filter="url(#filter1_d_0_405)">
<path fill-rule="evenodd" clip-rule="evenodd" d="M9 26.0667C9 16.641 16.641 9 26.0667 9H311.933C321.359 9 329 16.641 329 26.0667V63.6133H9V26.0667Z" fill="#00252E"/>
</g>
<rect x="41.1334" y="27.7733" width="104" height="20.48" rx="4.26667" fill="#E1E8EE"/>
<rect x="267.56" y="29.48" width="27.3067" height="3.41333" rx="1.70667" fill="#D8D8D8"/>
<rect x="267.56" y="36.3066" width="27.3067" height="3.41333" rx="1.70667" fill="#D8D8D8"/>
<rect x="267.56" y="43.1333" width="27.3067" height="3.41333" rx="1.70667" fill="#D8D8D8"/>
<circle cx="56" cy="132" r="15" fill="url(#paint0_linear_0_405)"/>
<rect x="87" y="120" width="57.5" height="5.33333" rx="0.919612" fill="#E1E8EE"/>
<rect x="87" y="130.667" width="200" height="2.66667" rx="0.919612" fill="#E1E8EE"/>
<rect x="87" y="136" width="183.333" height="2.66667" rx="0.919612" fill="#E1E8EE"/>
<rect x="87" y="141.333" width="166.667" height="2.66667" rx="0.919612" fill="#E1E8EE"/>
<circle cx="56" cy="270" r="15" fill="url(#paint1_linear_0_405)"/>
<rect x="87" y="258" width="57.5" height="5.33333" rx="0.919612" fill="#E1E8EE"/>
<rect x="87" y="268.667" width="200" height="2.66667" rx="0.919612" fill="#E1E8EE"/>
<rect x="87" y="274" width="183.333" height="2.66667" rx="0.919612" fill="#E1E8EE"/>
<rect x="87" y="279.333" width="166.667" height="2.66667" rx="0.919612" fill="#E1E8EE"/>
<rect x="87" y="166" width="57.5" height="5.33333" rx="0.919612" fill="#E1E8EE"/>
<rect x="87" y="176.667" width="200" height="2.66667" rx="0.919612" fill="#E1E8EE"/>
<rect x="87" y="182" width="183.333" height="2.66667" rx="0.919612" fill="#E1E8EE"/>
<rect x="87" y="187.333" width="166.667" height="2.66667" rx="0.919612" fill="#E1E8EE"/>
<circle cx="56" cy="178" r="15" fill="url(#paint2_linear_0_405)"/>
<rect x="87" y="304" width="57.5" height="5.33333" rx="0.919612" fill="#E1E8EE"/>
<rect x="87" y="314.667" width="200" height="2.66667" rx="0.919612" fill="#E1E8EE"/>
<rect x="87" y="320" width="183.333" height="2.66667" rx="0.919612" fill="#E1E8EE"/>
<rect x="87" y="325.333" width="166.667" height="2.66667" rx="0.919612" fill="#E1E8EE"/>
<circle cx="56" cy="316" r="15" fill="url(#paint3_linear_0_405)"/>
<rect x="87" y="212" width="57.5" height="5.33333" rx="0.919612" fill="#E1E8EE"/>
<rect x="87" y="222.667" width="200" height="2.66667" rx="0.919612" fill="#E1E8EE"/>
<rect x="87" y="228" width="183.333" height="2.66667" rx="0.919612" fill="#E1E8EE"/>
<rect x="87" y="233.333" width="166.667" height="2.66667" rx="0.919612" fill="#E1E8EE"/>
<circle cx="56" cy="224" r="15" fill="url(#paint4_linear_0_405)"/>
<rect x="87" y="350" width="57.5" height="5.33333" rx="0.919612" fill="#E1E8EE"/>
<rect x="87" y="360.667" width="200" height="2.66667" rx="0.919612" fill="#E1E8EE"/>
<rect x="87" y="366" width="183.333" height="2.66667" rx="0.919612" fill="#E1E8EE"/>
<rect x="87" y="371.333" width="166.667" height="2.66667" rx="0.919612" fill="#E1E8EE"/>
<circle cx="56" cy="362" r="15" fill="url(#paint5_linear_0_405)"/>
<circle cx="56" cy="408" r="15" fill="url(#paint6_linear_0_405)"/>
<rect x="87" y="396" width="57.5" height="5.33333" rx="0.919612" fill="#E1E8EE"/>
<rect x="87" y="406.667" width="200" height="2.66667" rx="0.919612" fill="#E1E8EE"/>
<rect x="87" y="412" width="183.333" height="2.66667" rx="0.919612" fill="#E1E8EE"/>
<rect x="87" y="417.333" width="166.667" height="2.66667" rx="0.919612" fill="#E1E8EE"/>
<rect x="87" y="442" width="57.5" height="5.33333" rx="0.919612" fill="#E1E8EE"/>
<rect x="87" y="452.667" width="200" height="2.66667" rx="0.919612" fill="#E1E8EE"/>
<rect x="87" y="458" width="183.333" height="2.66667" rx="0.919612" fill="#E1E8EE"/>
<rect x="87" y="463.333" width="166.667" height="2.66667" rx="0.919612" fill="#E1E8EE"/>
<circle cx="56" cy="454" r="15" fill="url(#paint7_linear_0_405)"/>
<defs>
<filter id="filter0_d_0_405" x="0" y="0" width="338" height="530" filterUnits="userSpaceOnUse" color-interpolation-filters="sRGB">
<feFlood flood-opacity="0" result="BackgroundImageFix"/>
<feColorMatrix in="SourceAlpha" type="matrix" values="0 0 0 0 0 0 0 0 0 0 0 0 0 0 0 0 0 0 127 0" result="hardAlpha"/>
<feOffset/>
<feGaussianBlur stdDeviation="4.5"/>
<feColorMatrix type="matrix" values="0 0 0 0 0 0 0 0 0 0.145098 0 0 0 0 0.180392 0 0 0 0.181839 0"/>
<feBlend mode="normal" in2="BackgroundImageFix" result="effect1_dropShadow_0_405"/>
<feBlend mode="normal" in="SourceGraphic" in2="effect1_dropShadow_0_405" result="shape"/>
</filter>
<filter id="filter1_d_0_405" x="0" y="0" width="338" height="72.6133" filterUnits="userSpaceOnUse" color-interpolation-filters="sRGB">
<feFlood flood-opacity="0" result="BackgroundImageFix"/>
<feColorMatrix in="SourceAlpha" type="matrix" values="0 0 0 0 0 0 0 0 0 0 0 0 0 0 0 0 0 0 127 0" result="hardAlpha"/>
<feOffset/>
<feGaussianBlur stdDeviation="4.5"/>
<feColorMatrix type="matrix" values="0 0 0 0 0 0 0 0 0 0.145098 0 0 0 0 0.180392 0 0 0 0.181839 0"/>
<feBlend mode="normal" in2="BackgroundImageFix" result="effect1_dropShadow_0_405"/>
<feBlend mode="normal" in="SourceGraphic" in2="effect1_dropShadow_0_405" result="shape"/>
</filter>
<linearGradient id="paint0_linear_0_405" x1="24.1783" y1="119.469" x2="42.5336" y2="161.999" gradientUnits="userSpaceOnUse">
<stop stop-color="#FAD961"/>
<stop offset="1" stop-color="#FF52C1"/>
</linearGradient>
<linearGradient id="paint1_linear_0_405" x1="24.1783" y1="257.469" x2="42.5336" y2="299.999" gradientUnits="userSpaceOnUse">
<stop stop-color="#FAD961"/>
<stop offset="1" stop-color="#FF52C1"/>
</linearGradient>
<linearGradient id="paint2_linear_0_405" x1="41" y1="163" x2="41" y2="193" gradientUnits="userSpaceOnUse">
<stop stop-color="#00C7FA"/>
<stop offset="1" stop-color="#007DFA"/>
</linearGradient>
<linearGradient id="paint3_linear_0_405" x1="41" y1="301" x2="41" y2="331" gradientUnits="userSpaceOnUse">
<stop stop-color="#00C7FA"/>
<stop offset="1" stop-color="#007DFA"/>
</linearGradient>
<linearGradient id="paint4_linear_0_405" x1="33.0053" y1="218.184" x2="51.3735" y2="251.557" gradientUnits="userSpaceOnUse">
<stop stop-color="#FF52C1"/>
<stop offset="1" stop-color="#9952FF"/>
</linearGradient>
<linearGradient id="paint5_linear_0_405" x1="33.0053" y1="356.184" x2="51.3735" y2="389.557" gradientUnits="userSpaceOnUse">
<stop stop-color="#FF52C1"/>
<stop offset="1" stop-color="#9952FF"/>
</linearGradient>
<linearGradient id="paint6_linear_0_405" x1="24.1783" y1="395.469" x2="42.5336" y2="437.999" gradientUnits="userSpaceOnUse">
<stop stop-color="#FAD961"/>
<stop offset="1" stop-color="#FF52C1"/>
</linearGradient>
<linearGradient id="paint7_linear_0_405" x1="41" y1="439" x2="41" y2="469" gradientUnits="userSpaceOnUse">
<stop stop-color="#00C7FA"/>
<stop offset="1" stop-color="#007DFA"/>
</linearGradient>
</defs>
</svg>
