<?xml version="1.0" standalone="no"?>
<!DOCTYPE svg PUBLIC "-//W3C//DTD SVG 20010904//EN"
 "http://www.w3.org/TR/2001/REC-SVG-20010904/DTD/svg10.dtd">
<svg version="1.0" xmlns="http://www.w3.org/2000/svg"
 width="300.000000pt" height="80.000000pt" viewBox="0 0 300.000000 80.000000"
 preserveAspectRatio="xMidYMid meet">
<metadata>
Created by potrace 1.10, written by Peter Selinger 2001-2011
</metadata>
<g transform="translate(0.000000,80.000000) scale(0.100000,-0.100000)"
fill="#000000" stroke="none">
<path d="M1736 679 c-14 -11 -26 -29 -26 -39 0 -24 -11 -30 -58 -36 -57 -7
-74 -14 -116 -47 -35 -27 -39 -29 -48 -12 -35 62 -109 76 -153 29 -22 -24 -25
-36 -25 -110 0 -76 -10 -107 -28 -89 -4 4 -9 46 -10 93 -3 71 -8 91 -25 110
-25 26 -81 30 -115 6 -22 -15 -23 -14 -33 16 -14 39 -60 64 -104 56 -50 -10
-72 -41 -74 -104 -1 -18 -6 -23 -23 -20 -17 2 -24 11 -26 33 -4 45 -21 72 -53
85 -37 16 -84 4 -109 -27 -19 -25 -20 -38 -18 -204 3 -208 8 -219 88 -219 62
0 88 26 92 95 3 42 6 50 24 53 19 3 22 -3 26 -52 6 -74 26 -96 88 -96 36 0 52
5 68 23 12 13 22 30 22 38 0 29 12 27 41 -6 42 -48 106 -71 161 -57 24 6 64 8
91 5 45 -5 49 -4 79 29 l31 36 43 -33 c49 -37 107 -51 148 -36 15 6 51 8 82 5
60 -7 87 7 105 55 l9 23 40 -35 c51 -47 107 -64 159 -49 22 7 58 9 85 6 35 -5
55 -2 81 12 32 17 35 17 53 1 28 -25 94 -22 119 5 11 13 23 32 27 42 6 18 8
18 34 -6 83 -78 199 -86 274 -19 24 21 31 36 30 61 0 19 8 46 19 61 10 15 19
40 19 56 0 45 -41 115 -88 150 -38 29 -51 33 -106 33 -51 0 -70 -5 -108 -29
-25 -16 -49 -34 -53 -41 -13 -21 -25 11 -25 68 0 43 -5 58 -25 77 -30 31 -82
33 -119 4 l-26 -20 -26 20 c-54 42 -136 12 -146 -52 -2 -12 -10 -21 -17 -19
-36 8 -118 -20 -155 -53 -22 -19 -43 -32 -47 -29 -5 3 -9 32 -9 65 0 50 -4 64
-25 84 -30 31 -82 33 -119 4z m112 -214 c1 -104 0 -200 -3 -212 -4 -19 -12
-23 -45 -23 -22 0 -40 3 -40 8 0 4 -4 13 -9 21 -7 11 -14 9 -39 -9 -25 -18
-39 -22 -73 -17 -23 3 -54 14 -68 24 -35 26 -71 99 -71 144 0 57 39 120 90
147 58 29 91 28 130 -4 l31 -27 -7 61 c-3 33 -3 65 1 72 4 6 26 10 53 8 l47
-3 3 -190z m397 -20 l0 -210 -37 -3 c-28 -2 -40 2 -50 17 -12 19 -12 19 -39 0
-33 -23 -80 -24 -125 -3 -126 60 -118 254 13 310 47 20 78 17 112 -12 l31 -26
0 72 0 71 48 -3 47 -3 0 -210z m173 11 c2 -138 -1 -203 -9 -212 -12 -14 -89
-20 -89 -6 -1 18 -1 408 0 415 0 4 21 7 48 5 l47 -3 3 -199z m-1588 94 l0 -70
65 0 65 0 0 70 0 70 50 0 50 0 0 -196 0 -195 -47 3 -48 3 -3 78 -3 77 -64 0
-65 0 0 -80 0 -80 -50 0 -50 0 0 195 0 195 50 0 50 0 0 -70z m1870 -2 c58 -30
90 -78 90 -134 l0 -44 -115 0 c-64 0 -115 -4 -115 -9 0 -15 51 -51 72 -51 11
0 35 7 54 16 37 18 54 11 75 -27 8 -15 2 -22 -34 -44 -80 -46 -182 -23 -233
54 -23 35 -26 48 -22 99 5 71 34 117 92 143 54 24 82 24 136 -3z m-1469 -83
c-2 -80 0 -94 19 -118 25 -32 52 -35 80 -7 17 17 20 33 20 120 l0 100 50 0 50
0 -2 -162 -3 -163 -35 0 c-29 0 -36 4 -38 23 -3 21 -22 32 -22 12 0 -20 -62
-42 -102 -37 -82 11 -106 58 -108 203 -1 60 -1 113 -1 117 1 4 22 7 48 5 l47
-3 -3 -90z"/>
<path d="M1622 457 c-29 -30 -30 -89 -2 -117 47 -47 130 -9 130 59 0 69 -83
106 -128 58z m80 -42 c10 -21 9 -29 -5 -43 -31 -31 -75 19 -47 53 19 22 39 18
52 -10z"/>
<path d="M2022 457 c-29 -30 -30 -89 -2 -117 48 -48 130 -9 130 62 0 68 -83
103 -128 55z m76 -29 c17 -17 15 -43 -4 -59 -31 -26 -70 25 -44 56 15 18 32
19 48 3z"/>
<path d="M2592 474 c-37 -25 -25 -34 46 -34 l67 1 -28 24 c-33 29 -54 31 -85
9z"/>
<path d="M255 676 c-160 -29 -204 -59 -206 -139 -5 -153 -3 -170 27 -194 16
-13 35 -28 41 -34 7 -5 13 -25 13 -43 0 -37 25 -66 59 -66 23 0 51 24 88 75
21 29 23 30 134 35 175 8 202 35 208 200 2 76 0 89 -20 114 -12 16 -38 35 -58
43 -47 20 -201 25 -286 9z m261 -37 c74 -19 87 -59 63 -196 -15 -85 -24 -90
-177 -99 -121 -7 -123 -7 -149 -38 -14 -17 -30 -41 -36 -54 -7 -15 -18 -22
-31 -20 -18 3 -21 11 -24 61 -3 53 -5 57 -27 57 -44 0 -55 24 -55 118 0 130 4
134 145 166 75 17 231 20 291 5z"/>
<path d="M260 614 c-47 -9 -99 -22 -116 -29 -28 -12 -31 -18 -37 -68 -3 -30
-3 -74 0 -96 5 -34 9 -41 28 -41 48 0 55 -9 55 -69 l0 -56 21 35 c46 76 53 80
153 80 123 0 164 8 178 34 6 11 12 59 12 106 1 81 0 85 -25 97 -42 21 -175 24
-269 7z m245 -40 c8 -4 15 -15 15 -25 0 -24 -6 -24 -32 1 -23 21 -63 27 -73
10 -10 -17 -41 -11 -61 11 l-19 22 77 -7 c43 -4 85 -9 93 -12z m-191 -9 c-25
-19 -44 -19 -44 0 0 10 10 15 32 15 30 0 31 -1 12 -15z m-54 -44 c13 -25 4
-48 -21 -56 -38 -12 -65 35 -37 63 18 18 46 14 58 -7z m98 7 c28 -28 1 -75
-38 -63 -33 11 -21 75 15 75 6 0 16 -5 23 -12z m112 -2 c6 -8 10 -25 8 -38 -2
-18 -9 -23 -33 -23 -24 0 -31 5 -33 23 -4 25 13 52 33 52 7 0 18 -7 25 -14z
m-293 -66 c26 -31 51 -37 82 -20 12 6 29 5 49 -2 24 -9 36 -9 55 1 21 11 28
10 52 -5 l28 -19 -33 -6 c-18 -4 -48 -5 -66 -3 -18 2 -53 -3 -78 -11 -42 -14
-48 -14 -73 1 -38 24 -53 44 -53 71 0 30 6 29 37 -7z m336 -20 c-3 -11 -10
-20 -17 -21 -6 0 -20 -2 -30 -4 -15 -3 -13 2 10 20 36 30 44 31 37 5z"/>
</g>
</svg>
